<svg width="20" height="20" viewBox="0 0 20 20" fill="none" xmlns="http://www.w3.org/2000/svg">
<path d="M15.6271 10.1318C15.5596 10.0628 15.4791 10.0079 15.3901 9.97037C15.3012 9.93282 15.2057 9.91335 15.1092 9.91309C15.0127 9.91283 14.9171 9.93178 14.828 9.96884C14.7389 10.0059 14.658 10.0603 14.5902 10.1289C14.5223 10.1976 14.4688 10.279 14.4327 10.3685C14.3966 10.458 14.3787 10.5539 14.38 10.6504C14.3814 10.7469 14.4019 10.8421 14.4404 10.9306C14.4789 11.0191 14.5347 11.0991 14.6044 11.1658C15.2214 11.773 15.711 12.4972 16.0443 13.2961C16.3776 14.0951 16.548 14.9525 16.5454 15.8181C16.5454 16.7077 13.9957 17.9999 10 17.9999C6.00431 17.9999 3.45457 16.707 3.45457 15.8167C3.45212 14.957 3.62023 14.1053 3.94914 13.311C4.27806 12.5167 4.76127 11.7956 5.37078 11.1893C5.43972 11.1221 5.49463 11.0418 5.53232 10.9532C5.57001 10.8646 5.58973 10.7694 5.59034 10.6732C5.59095 10.5769 5.57244 10.4814 5.53587 10.3924C5.49931 10.3033 5.44542 10.2224 5.37734 10.1543C5.30926 10.0862 5.22834 10.0323 5.13927 9.99577C5.0502 9.95921 4.95476 9.94069 4.85848 9.9413C4.7622 9.94191 4.667 9.96163 4.5784 9.99932C4.4898 10.037 4.40956 10.0919 4.34235 10.1609C3.59721 10.9021 3.0065 11.7838 2.60444 12.7548C2.20238 13.7259 1.99694 14.7671 2.00003 15.8181C2.00003 18.18 6.12147 19.4545 10 19.4545C13.8785 19.4545 18 18.18 18 15.8181C18.0032 14.76 17.795 13.712 17.3875 12.7355C16.98 11.759 16.3815 10.8737 15.6271 10.1318Z" fill="black"/>
<path d="M10.0001 10.7277C11.0069 10.7277 11.9912 10.4291 12.8284 9.8697C13.6656 9.31031 14.3181 8.51522 14.7034 7.58498C15.0887 6.65475 15.1896 5.63114 14.9931 4.6436C14.7967 3.65607 14.3118 2.74896 13.5999 2.03699C12.8879 1.32501 11.9808 0.840154 10.9932 0.643721C10.0057 0.447288 8.98211 0.548104 8.05187 0.933421C7.12163 1.31874 6.32654 1.97125 5.76715 2.80844C5.20775 3.64563 4.90918 4.6299 4.90918 5.63679C4.91074 6.98649 5.4476 8.28047 6.40199 9.23486C7.35638 10.1893 8.65036 10.7261 10.0001 10.7277ZM10.0001 2.00044C10.7193 2.00044 11.4223 2.21371 12.0203 2.61327C12.6183 3.01284 13.0844 3.58076 13.3596 4.24522C13.6348 4.90967 13.7069 5.64082 13.5665 6.3462C13.4262 7.05158 13.0799 7.69952 12.5714 8.20807C12.0628 8.71662 11.4149 9.06295 10.7095 9.20326C10.0041 9.34357 9.27295 9.27156 8.6085 8.99633C7.94404 8.7211 7.37612 8.25502 6.97655 7.65703C6.57699 7.05904 6.36372 6.35599 6.36372 5.63679C6.36485 4.67271 6.74833 3.74846 7.43003 3.06675C8.11174 2.38505 9.036 2.00157 10.0001 2.00044Z" fill="black"/>
</svg>
