<svg width="20" height="21" viewBox="0 0 20 21" fill="none" xmlns="http://www.w3.org/2000/svg">
<path fill-rule="evenodd" clip-rule="evenodd" d="M14.3043 20.1672H6.26131C3.30694 20.1672 1.04046 19.1001 1.68424 14.8052L2.43386 8.98467C2.83072 6.84165 4.19766 6.02148 5.39705 6.02148H15.2038C16.4208 6.02148 17.7084 6.90339 18.167 8.98467L18.9166 14.8052C19.4634 18.615 17.2586 20.1672 14.3043 20.1672Z" stroke="black" stroke-width="1.3" stroke-linecap="round" stroke-linejoin="round"/>
<path d="M14.4365 5.81007C14.4365 3.51115 12.5729 1.6475 10.274 1.6475V1.6475C9.16693 1.64281 8.10362 2.07929 7.31917 2.86043C6.53472 3.64158 6.09374 4.70303 6.09375 5.81007H6.09375" stroke="black" stroke-width="1.3" stroke-linecap="round" stroke-linejoin="round"/>
<path d="M13.132 10.1484H13.0879" stroke="black" stroke-width="1.3" stroke-linecap="round" stroke-linejoin="round"/>
<path d="M7.51378 10.149H7.46968" stroke="black" stroke-width="1.3" stroke-linecap="round" stroke-linejoin="round"/>
</svg>
