<svg width="32" height="32" viewBox="0 0 32 32" fill="none" xmlns="http://www.w3.org/2000/svg">
<path d="M15.9987 19.203C17.7639 19.203 19.203 17.7665 19.203 16C19.203 15.3026 18.9749 14.6588 18.5972 14.1329C18.0153 13.326 17.0692 12.7969 16.0006 12.7969C14.9314 12.7969 13.986 13.3254 13.4027 14.1322C13.0237 14.6581 12.7975 15.302 12.7969 15.9993C12.7949 17.7658 14.2328 19.203 15.9987 19.203Z" fill="white"/>
<path d="M22.9933 12.0816V9.39665V8.99707L22.5918 8.99836L19.9082 9.00674L19.9185 12.0919L22.9933 12.0816Z" fill="white"/>
<path d="M16 0C7.17764 0 0 7.17764 0 16C0 24.8217 7.17764 32 16 32C24.8217 32 32 24.8217 32 16C32 7.17764 24.823 0 16 0ZM25.0995 14.1329V21.5832C25.0995 23.5237 23.5218 25.1008 21.5825 25.1008H10.4175C8.47756 25.1008 6.90051 23.5237 6.90051 21.5832V14.1329V10.4181C6.90051 8.47821 8.47756 6.90115 10.4175 6.90115H21.5819C23.5218 6.90115 25.0995 8.47821 25.0995 10.4181V14.1329Z" fill="white"/>
<path d="M20.9774 15.9999C20.9774 18.7435 18.7449 20.9772 16 20.9772C13.2551 20.9772 11.0233 18.7435 11.0233 15.9999C11.0233 15.3399 11.1548 14.709 11.3894 14.1328H8.67285V21.5831C8.67285 22.5459 9.45461 23.3258 10.4168 23.3258H21.5813C22.5422 23.3258 23.3252 22.5459 23.3252 21.5831V14.1328H20.6074C20.844 14.709 20.9774 15.3399 20.9774 15.9999Z" fill="white"/>
</svg>
