<svg width="32" height="32" viewBox="0 0 32 32" fill="none" xmlns="http://www.w3.org/2000/svg">
<path d="M15.9997 31.9999C24.8361 31.9999 31.9994 24.8366 31.9994 16.0002C31.9994 7.1638 24.8361 0.000488281 15.9997 0.000488281C7.16332 0.000488281 0 7.1638 0 16.0002C0 24.8366 7.16332 31.9999 15.9997 31.9999Z" fill="white"/>
<path d="M17.2918 21.4256C16.0822 21.3321 15.574 20.7323 14.6254 20.1564C14.104 22.8919 13.4669 25.5141 11.5796 26.884C10.9964 22.7496 12.4347 19.6442 13.1026 16.348C11.9641 14.4314 13.2395 10.5737 15.641 11.5243C18.5966 12.6931 13.0821 18.6508 16.7841 19.3949C20.649 20.1718 22.2268 12.6888 19.8299 10.2548C16.3669 6.74072 9.74972 10.1749 10.5634 15.2055C10.7616 16.4353 12.0325 16.8086 11.0711 18.5056C8.85473 18.0148 8.19361 16.2667 8.2786 13.9363C8.41579 10.1216 11.7063 7.45061 15.0067 7.08098C19.1808 6.6138 23.0984 8.61369 23.6392 12.5399C24.2475 16.9712 21.7548 21.7701 17.2918 21.4256Z" fill="#161616"/>
</svg>
