<svg width="20" height="20" viewBox="0 0 20 20" fill="none" xmlns="http://www.w3.org/2000/svg">
<g clip-path="url(#clip0_5_614)">
<path fill-rule="evenodd" clip-rule="evenodd" d="M16.9325 9.21627C16.9325 13.4779 13.4779 16.9325 9.21627 16.9325C4.95469 16.9325 1.5 13.4779 1.5 9.21627C1.5 4.95469 4.95469 1.5 9.21627 1.5C13.4779 1.5 16.9325 4.95469 16.9325 9.21627ZM15.1893 16.2353C13.5806 17.6055 11.495 18.4325 9.21627 18.4325C4.12627 18.4325 0 14.3063 0 9.21627C0 4.12627 4.12627 0 9.21627 0C14.3063 0 18.4325 4.12627 18.4325 9.21627C18.4325 11.4948 17.6057 13.5801 16.2357 15.1887C16.2686 15.2123 16.3001 15.2389 16.3296 15.2685L19.8406 18.7795C20.1335 19.0724 20.1335 19.5472 19.8406 19.8401C19.5477 20.133 19.0728 20.133 18.7799 19.8401L15.269 16.3292C15.2394 16.2996 15.2128 16.2682 15.1893 16.2353Z" fill="black"/>
</g>
<defs>
<clipPath id="clip0_5_614">
<rect width="20" height="20" fill="white"/>
</clipPath>
</defs>
</svg>
