<svg width="32" height="32" viewBox="0 0 32 32" fill="none" xmlns="http://www.w3.org/2000/svg">
<g clip-path="url(#clip0_1_3232)">
<path d="M13.7812 18.581L18.2191 16.0063L13.7812 13.4189V18.581Z" fill="white"/>
<path d="M16 0C12.8355 0 9.74205 0.938384 7.11086 2.69649C4.47967 4.45459 2.42891 6.95345 1.21791 9.87707C0.006902 12.8007 -0.309952 16.0177 0.307412 19.1214C0.924776 22.2251 2.44863 25.0761 4.68627 27.3137C6.92391 29.5513 9.77484 31.0752 12.8785 31.6926C15.9822 32.3099 19.1993 31.9931 22.1229 30.7821C25.0465 29.5711 27.5454 27.5203 29.3035 24.8891C31.0616 22.2579 32 19.1645 32 16C32 11.7565 30.3143 7.68687 27.3137 4.68629C24.3131 1.68571 20.2435 0 16 0V0ZM24.421 18.8316C24.4213 19.2501 24.3391 19.6645 24.1792 20.0512C24.0192 20.4379 23.7847 20.7893 23.4889 21.0853C23.193 21.3813 22.8418 21.6161 22.4552 21.7763C22.0686 21.9365 21.6543 22.0189 21.2358 22.0189H10.7642C10.3457 22.0189 9.93135 21.9365 9.54476 21.7763C9.15817 21.6161 8.80694 21.3813 8.51113 21.0853C8.21532 20.7893 7.98074 20.4379 7.82079 20.0512C7.66084 19.6645 7.57865 19.2501 7.57893 18.8316V13.1684C7.57865 12.75 7.66084 12.3355 7.82079 11.9488C7.98074 11.5621 8.21532 11.2107 8.51113 10.9147C8.80694 10.6187 9.15817 10.3839 9.54476 10.2237C9.93135 10.0635 10.3457 9.98105 10.7642 9.98105H21.2358C21.6543 9.98105 22.0686 10.0635 22.4552 10.2237C22.8418 10.3839 23.193 10.6187 23.4889 10.9147C23.7847 11.2107 24.0192 11.5621 24.1792 11.9488C24.3391 12.3355 24.4213 12.75 24.421 13.1684V18.8316Z" fill="white"/>
</g>
<defs>
<clipPath id="clip0_1_3232">
<rect width="32" height="32" fill="white"/>
</clipPath>
</defs>
</svg>
